<mxfile host="app.diagrams.net" modified="2021-05-26T16:59:23.267Z" agent="5.0 (Windows NT 10.0; Win64; x64) AppleWebKit/537.36 (KHTML, like Gecko) Chrome/90.0.4430.212 Safari/537.36" etag="SvS_dVEejBrJ7g3r1x4u" version="14.7.2" type="github" pages="3">
  <diagram id="lDnQBIZx4YFWIrB_xcJz" name="Page-1">
    <mxGraphModel dx="496" dy="265" grid="1" gridSize="10" guides="1" tooltips="1" connect="1" arrows="1" fold="1" page="1" pageScale="1" pageWidth="850" pageHeight="1100" math="0" shadow="0">
      <root>
        <mxCell id="0" />
        <mxCell id="1" parent="0" />
        <mxCell id="2iPEMb4u1OEu3WZalwIn-9" value="&lt;font style=&quot;font-size: 18px&quot;&gt;S&lt;/font&gt;" style="text;html=1;strokeColor=none;fillColor=none;align=center;verticalAlign=middle;whiteSpace=wrap;rounded=0;" vertex="1" parent="1">
          <mxGeometry x="508" y="130" width="40" height="20" as="geometry" />
        </mxCell>
        <mxCell id="2iPEMb4u1OEu3WZalwIn-10" value="&lt;font style=&quot;font-size: 18px&quot;&gt;a&lt;/font&gt;" style="text;html=1;strokeColor=none;fillColor=none;align=center;verticalAlign=middle;whiteSpace=wrap;rounded=0;" vertex="1" parent="1">
          <mxGeometry x="449" y="200" width="40" height="20" as="geometry" />
        </mxCell>
        <mxCell id="2iPEMb4u1OEu3WZalwIn-11" value="&lt;font style=&quot;font-size: 18px&quot;&gt;A&lt;/font&gt;" style="text;html=1;strokeColor=none;fillColor=none;align=center;verticalAlign=middle;whiteSpace=wrap;rounded=0;" vertex="1" parent="1">
          <mxGeometry x="508" y="200" width="40" height="20" as="geometry" />
        </mxCell>
        <mxCell id="2iPEMb4u1OEu3WZalwIn-12" value="" style="endArrow=none;html=1;" edge="1" parent="1">
          <mxGeometry width="50" height="50" relative="1" as="geometry">
            <mxPoint x="468" y="200" as="sourcePoint" />
            <mxPoint x="528" y="150" as="targetPoint" />
          </mxGeometry>
        </mxCell>
        <mxCell id="2iPEMb4u1OEu3WZalwIn-13" value="" style="endArrow=none;html=1;" edge="1" parent="1">
          <mxGeometry width="50" height="50" relative="1" as="geometry">
            <mxPoint x="528" y="200" as="sourcePoint" />
            <mxPoint x="527.6600000000001" y="150" as="targetPoint" />
          </mxGeometry>
        </mxCell>
        <mxCell id="2iPEMb4u1OEu3WZalwIn-14" value="" style="endArrow=none;html=1;" edge="1" parent="1">
          <mxGeometry width="50" height="50" relative="1" as="geometry">
            <mxPoint x="578" y="200" as="sourcePoint" />
            <mxPoint x="528" y="150" as="targetPoint" />
          </mxGeometry>
        </mxCell>
        <mxCell id="2iPEMb4u1OEu3WZalwIn-15" value="&lt;font style=&quot;font-size: 18px&quot;&gt;d&lt;/font&gt;" style="text;html=1;strokeColor=none;fillColor=none;align=center;verticalAlign=middle;whiteSpace=wrap;rounded=0;" vertex="1" parent="1">
          <mxGeometry x="558" y="200" width="40" height="20" as="geometry" />
        </mxCell>
      </root>
    </mxGraphModel>
  </diagram>
  <diagram id="lAhD2XdqaYgL1adbZS4R" name="Page-2">
    <mxGraphModel dx="347" dy="185" grid="1" gridSize="10" guides="1" tooltips="1" connect="1" arrows="1" fold="1" page="1" pageScale="1" pageWidth="850" pageHeight="1100" math="0" shadow="0">
      <root>
        <mxCell id="OOxDAzau-pG4ttUR_O94-0" />
        <mxCell id="OOxDAzau-pG4ttUR_O94-1" parent="OOxDAzau-pG4ttUR_O94-0" />
        <mxCell id="OOxDAzau-pG4ttUR_O94-2" value="&lt;font style=&quot;font-size: 18px&quot;&gt;S&lt;/font&gt;" style="text;html=1;strokeColor=none;fillColor=none;align=center;verticalAlign=middle;whiteSpace=wrap;rounded=0;" vertex="1" parent="OOxDAzau-pG4ttUR_O94-1">
          <mxGeometry x="508" y="130" width="40" height="20" as="geometry" />
        </mxCell>
        <mxCell id="OOxDAzau-pG4ttUR_O94-3" value="&lt;font style=&quot;font-size: 18px&quot;&gt;a&lt;/font&gt;" style="text;html=1;strokeColor=none;fillColor=none;align=center;verticalAlign=middle;whiteSpace=wrap;rounded=0;" vertex="1" parent="OOxDAzau-pG4ttUR_O94-1">
          <mxGeometry x="449" y="200" width="40" height="20" as="geometry" />
        </mxCell>
        <mxCell id="OOxDAzau-pG4ttUR_O94-4" value="&lt;font style=&quot;font-size: 18px&quot;&gt;A&lt;/font&gt;" style="text;html=1;strokeColor=none;fillColor=none;align=center;verticalAlign=middle;whiteSpace=wrap;rounded=0;" vertex="1" parent="OOxDAzau-pG4ttUR_O94-1">
          <mxGeometry x="508" y="200" width="40" height="20" as="geometry" />
        </mxCell>
        <mxCell id="OOxDAzau-pG4ttUR_O94-5" value="" style="endArrow=none;html=1;" edge="1" parent="OOxDAzau-pG4ttUR_O94-1">
          <mxGeometry width="50" height="50" relative="1" as="geometry">
            <mxPoint x="468" y="200" as="sourcePoint" />
            <mxPoint x="528" y="150" as="targetPoint" />
          </mxGeometry>
        </mxCell>
        <mxCell id="OOxDAzau-pG4ttUR_O94-6" value="" style="endArrow=none;html=1;" edge="1" parent="OOxDAzau-pG4ttUR_O94-1">
          <mxGeometry width="50" height="50" relative="1" as="geometry">
            <mxPoint x="528" y="200" as="sourcePoint" />
            <mxPoint x="527.6600000000001" y="150" as="targetPoint" />
          </mxGeometry>
        </mxCell>
        <mxCell id="OOxDAzau-pG4ttUR_O94-7" value="" style="endArrow=none;html=1;" edge="1" parent="OOxDAzau-pG4ttUR_O94-1">
          <mxGeometry width="50" height="50" relative="1" as="geometry">
            <mxPoint x="578" y="200" as="sourcePoint" />
            <mxPoint x="528" y="150" as="targetPoint" />
          </mxGeometry>
        </mxCell>
        <mxCell id="OOxDAzau-pG4ttUR_O94-8" value="&lt;font style=&quot;font-size: 18px&quot;&gt;d&lt;/font&gt;" style="text;html=1;strokeColor=none;fillColor=none;align=center;verticalAlign=middle;whiteSpace=wrap;rounded=0;" vertex="1" parent="OOxDAzau-pG4ttUR_O94-1">
          <mxGeometry x="558" y="200" width="40" height="20" as="geometry" />
        </mxCell>
        <mxCell id="OOxDAzau-pG4ttUR_O94-9" value="&lt;font style=&quot;font-size: 18px&quot;&gt;b&lt;/font&gt;" style="text;html=1;strokeColor=none;fillColor=none;align=center;verticalAlign=middle;whiteSpace=wrap;rounded=0;" vertex="1" parent="OOxDAzau-pG4ttUR_O94-1">
          <mxGeometry x="508" y="263" width="40" height="20" as="geometry" />
        </mxCell>
        <mxCell id="OOxDAzau-pG4ttUR_O94-10" value="" style="endArrow=none;html=1;entryX=0.5;entryY=1;entryDx=0;entryDy=0;exitX=0.5;exitY=0;exitDx=0;exitDy=0;" edge="1" parent="OOxDAzau-pG4ttUR_O94-1" source="OOxDAzau-pG4ttUR_O94-9" target="OOxDAzau-pG4ttUR_O94-4">
          <mxGeometry width="50" height="50" relative="1" as="geometry">
            <mxPoint x="530" y="263" as="sourcePoint" />
            <mxPoint x="580" y="213" as="targetPoint" />
          </mxGeometry>
        </mxCell>
      </root>
    </mxGraphModel>
  </diagram>
  <diagram id="OJVTrFPATKVL9w89XrWP" name="Page-3">
    <mxGraphModel dx="413" dy="220" grid="1" gridSize="10" guides="1" tooltips="1" connect="1" arrows="1" fold="1" page="1" pageScale="1" pageWidth="850" pageHeight="1100" math="0" shadow="0">
      <root>
        <mxCell id="Gg8EptJkCdgs-2cRL01h-0" />
        <mxCell id="Gg8EptJkCdgs-2cRL01h-1" parent="Gg8EptJkCdgs-2cRL01h-0" />
        <mxCell id="Gg8EptJkCdgs-2cRL01h-2" value="&lt;font style=&quot;font-size: 18px&quot;&gt;S&lt;/font&gt;" style="text;html=1;strokeColor=none;fillColor=none;align=center;verticalAlign=middle;whiteSpace=wrap;rounded=0;" vertex="1" parent="Gg8EptJkCdgs-2cRL01h-1">
          <mxGeometry x="508" y="130" width="40" height="20" as="geometry" />
        </mxCell>
        <mxCell id="Gg8EptJkCdgs-2cRL01h-3" value="&lt;font style=&quot;font-size: 18px&quot;&gt;a&lt;/font&gt;" style="text;html=1;strokeColor=none;fillColor=none;align=center;verticalAlign=middle;whiteSpace=wrap;rounded=0;" vertex="1" parent="Gg8EptJkCdgs-2cRL01h-1">
          <mxGeometry x="449" y="200" width="40" height="20" as="geometry" />
        </mxCell>
        <mxCell id="Gg8EptJkCdgs-2cRL01h-4" value="&lt;font style=&quot;font-size: 18px&quot;&gt;A&lt;/font&gt;" style="text;html=1;strokeColor=none;fillColor=none;align=center;verticalAlign=middle;whiteSpace=wrap;rounded=0;" vertex="1" parent="Gg8EptJkCdgs-2cRL01h-1">
          <mxGeometry x="508" y="200" width="40" height="20" as="geometry" />
        </mxCell>
        <mxCell id="Gg8EptJkCdgs-2cRL01h-5" value="" style="endArrow=none;html=1;" edge="1" parent="Gg8EptJkCdgs-2cRL01h-1">
          <mxGeometry width="50" height="50" relative="1" as="geometry">
            <mxPoint x="468" y="200" as="sourcePoint" />
            <mxPoint x="528" y="150" as="targetPoint" />
          </mxGeometry>
        </mxCell>
        <mxCell id="Gg8EptJkCdgs-2cRL01h-6" value="" style="endArrow=none;html=1;" edge="1" parent="Gg8EptJkCdgs-2cRL01h-1">
          <mxGeometry width="50" height="50" relative="1" as="geometry">
            <mxPoint x="528" y="200" as="sourcePoint" />
            <mxPoint x="527.6600000000001" y="150" as="targetPoint" />
          </mxGeometry>
        </mxCell>
        <mxCell id="Gg8EptJkCdgs-2cRL01h-7" value="" style="endArrow=none;html=1;" edge="1" parent="Gg8EptJkCdgs-2cRL01h-1">
          <mxGeometry width="50" height="50" relative="1" as="geometry">
            <mxPoint x="578" y="200" as="sourcePoint" />
            <mxPoint x="528" y="150" as="targetPoint" />
          </mxGeometry>
        </mxCell>
        <mxCell id="Gg8EptJkCdgs-2cRL01h-8" value="&lt;font style=&quot;font-size: 18px&quot;&gt;d&lt;/font&gt;" style="text;html=1;strokeColor=none;fillColor=none;align=center;verticalAlign=middle;whiteSpace=wrap;rounded=0;" vertex="1" parent="Gg8EptJkCdgs-2cRL01h-1">
          <mxGeometry x="558" y="200" width="40" height="20" as="geometry" />
        </mxCell>
        <mxCell id="Gg8EptJkCdgs-2cRL01h-9" value="&lt;font style=&quot;font-size: 18px&quot;&gt;c&lt;/font&gt;" style="text;html=1;strokeColor=none;fillColor=none;align=center;verticalAlign=middle;whiteSpace=wrap;rounded=0;" vertex="1" parent="Gg8EptJkCdgs-2cRL01h-1">
          <mxGeometry x="508" y="263" width="40" height="20" as="geometry" />
        </mxCell>
        <mxCell id="Gg8EptJkCdgs-2cRL01h-10" value="" style="endArrow=none;html=1;entryX=0.5;entryY=1;entryDx=0;entryDy=0;exitX=0.5;exitY=0;exitDx=0;exitDy=0;" edge="1" parent="Gg8EptJkCdgs-2cRL01h-1" source="Gg8EptJkCdgs-2cRL01h-9" target="Gg8EptJkCdgs-2cRL01h-4">
          <mxGeometry width="50" height="50" relative="1" as="geometry">
            <mxPoint x="530" y="263" as="sourcePoint" />
            <mxPoint x="580" y="213" as="targetPoint" />
          </mxGeometry>
        </mxCell>
      </root>
    </mxGraphModel>
  </diagram>
</mxfile>
